<svg xmlns="http://www.w3.org/2000/svg" viewBox="0 0 320 80" role="img" aria-label="alec lowry">
  <title>alec lowry — Contour (mono)</title>
  <g transform="translate(40,40)" fill="none" stroke="currentColor" stroke-width="1.6">
    <path d="M -28 2 C -28 -10 -14 -18 0 -18 C 16 -18 28 -10 28 2 C 28 12 16 18 0 18 C -14 18 -28 12 -28 2 Z"/>
    <path d="M -20 4 C -20 -6 -10 -12 0 -12 C 12 -12 20 -6 20 4 C 20 11 12 16 0 16 C -10 16 -20 11 -20 4 Z"/>
    <path d="M -12 5 C -12 -2 -6 -7 1 -7 C 8 -7 12 -2 12 5 C 12 10 8 13 1 13 C -6 13 -12 10 -12 5 Z"/>
    <path d="M -5 6 C -5 2 -2 -1 2 -1 C 6 -1 7 2 7 6 C 7 9 5 11 2 11 C -2 11 -5 9 -5 6 Z"/>
    <circle cx="2" cy="6" r="1.6" fill="currentColor" stroke="none"/>
  </g>
  <text x="92" y="52"
        font-family="Newsreader, Georgia, 'Times New Roman', serif"
        font-size="32"
        font-weight="600"
        letter-spacing="-0.6"
        fill="currentColor">alec lowry</text>
</svg>
